 
http://www.shotpix.com/images/24477752676004111781.jpeg

The.Lion.of.Judah.2011.BDRip.XviD-SPRiNTER

Date: 2012.03 
http://www.imdb.com/title/tt1212022/

Genre: Animation
Subtitles: English, French, Spanish

Release notes

Enjoy!



Details

Format: AVI
Format/Info: Audio Video Interleave
File size: 697 MiB
Duration: 1h 27mn
Overall bit rate mode: Variable
Overall bit rate: 1 117 Kbps
Writing application: VirtualDubMod 1.5.10.2 (build 2540/release)
Writing library: VirtualDubMod build 2540/release

Video
ID: 0
Format: MPEG-4 Visual
Format profile: Advanced Simple@L5
Format settings, BVOP: 2
Format settings, QPel: No
Format settings, GMC: No warppoints
Format settings, Matrix: Default (H.263)
Codec ID: XVID
Codec ID/Hint: XviD
Duration: 1h 27mn
Bit rate: 977 Kbps
Width: 624 pixels
Height: 352 pixels
Display aspect ratio: 16:9
Frame rate: 23.976 fps
Color space: YUV
Chroma subsampling: 4:2:0
Bit depth: 8 bits
Scan type: Progressive
Compression mode: Lossy
Bits/(Pixel*Frame): 0.186
Stream size: 610 MiB (87%)
Writing library: XviD 61

Audio
ID: 1
Format: MPEG Audio
Format version: Version 1
Format profile: Layer 3
Mode: Joint stereo
Mode extension: MS Stereo
Codec ID: 55
Codec ID/Hint: MP3
Duration: 1h 27mn
Bit rate mode: Variable
Bit rate: 128 Kbps
Channel(s): 2 channels
Sampling rate: 48.0 KHz
Compression mode: Lossy
Stream size: 79.3 MiB (11%)
Alignment: Aligned on interleaves
Interleave, duration: 24 ms (0.58 video frame)
Interleave, preload duration: 145 ms
Writing library: LAME3.90
Encoding settings: -m j -V 4 -q 2 -lowpass 17.6 --abr 128
 
http://www.shotpix.com/images/74388273473510707137.jpeg 
http://www.shotpix.com/images/28036567113140175030.jpeg 
http://www.shotpix.com/images/84611604464867079097.jpeg